<?xml version="1.0" standalone="no"?>
<!DOCTYPE svg PUBLIC "-//W3C//DTD SVG 20010904//EN"
 "http://www.w3.org/TR/2001/REC-SVG-20010904/DTD/svg10.dtd">
<svg version="1.0" xmlns="http://www.w3.org/2000/svg"
 width="793.000000pt" height="788.000000pt" viewBox="0 0 793.000000 788.000000"
 preserveAspectRatio="xMidYMid meet">

<g transform="translate(0.000000,788.000000) scale(0.100000,-0.100000)"
fill="#000000" stroke="none">
<path d="M10 4375 l0 -3505 1405 0 1405 0 0 355 0 355 -1050 0 -1050 0 0 2095
0 2095 2795 0 2795 0 0 -350 0 -350 355 0 355 0 0 1055 0 1055 -2098 0 -2097
0 -175 350 -175 350 -1232 0 -1233 0 0 -3505z" style="fill:white;stroke:white;"/>
<path d="M4823 4336 c-138 -56 -254 -104 -257 -107 -4 -4 98 -486 138 -651 3
-12 -18 -34 -68 -72 -69 -53 -192 -174 -251 -248 l-30 -37 -320 75 c-176 41
-326 73 -333 72 -12 -3 -214 -458 -228 -513 -4 -17 38 -47 278 -201 l283 -180
-5 -85 c-3 -46 -5 -120 -5 -164 0 -44 2 -116 5 -159 l5 -80 -282 -175 c-155
-97 -284 -179 -287 -182 -5 -5 204 -523 216 -534 2 -2 152 30 333 70 l330 74
35 -42 c47 -58 215 -226 270 -269 l44 -37 -78 -326 c-43 -180 -74 -331 -69
-335 18 -17 527 -220 534 -213 4 5 88 131 186 282 l178 274 247 1 248 1 177
-282 c98 -156 184 -283 191 -283 23 0 532 212 532 222 0 5 -34 156 -75 335
l-75 325 28 22 c83 64 185 163 242 234 36 44 70 81 75 81 6 1 158 -33 339 -74
181 -42 330 -74 331 -73 4 7 225 527 225 531 0 2 -129 84 -287 181 l-288 178
0 247 0 247 279 174 c154 96 284 178 289 181 9 6 -194 512 -213 533 -4 4 -151
-26 -327 -68 -175 -42 -325 -76 -333 -76 -8 0 -21 9 -28 20 -31 51 -157 182
-235 245 -47 39 -86 75 -86 82 -1 6 33 157 74 334 41 178 73 325 71 326 -6 6
-539 223 -541 221 -2 -2 -83 -131 -181 -288 l-179 -285 -60 8 c-33 4 -143 6
-244 5 l-184 -3 -176 282 c-108 173 -182 282 -191 282 -8 0 -128 -47 -267
-103z m1092 -1356 c267 -84 463 -281 547 -550 19 -63 23 -96 23 -210 0 -155
-18 -229 -86 -360 -104 -201 -306 -354 -534 -406 -108 -25 -264 -22 -368 5
-344 90 -589 406 -589 761 0 379 265 700 643 780 78 16 285 5 364 -20z" style="fill:white;stroke:white;"/>
</g>
</svg>
