<?xml version="1.0" encoding="utf-8"?>
<!-- Generator: Adobe Illustrator 16.0.0, SVG Export Plug-In . SVG Version: 6.00 Build 0)  -->
<!DOCTYPE svg PUBLIC "-//W3C//DTD SVG 1.1//EN" "http://www.w3.org/Graphics/SVG/1.1/DTD/svg11.dtd">
<svg version="1.1" id="图层_1" xmlns="http://www.w3.org/2000/svg" xmlns:xlink="http://www.w3.org/1999/xlink" x="0px" y="0px"
	 width="1493px" height="46px" viewBox="0 0 1638 893" enable-background="new 0 0 1638 893" xml:space="preserve">
<path fill-rule="evenodd" clip-rule="evenodd" fill="none" d="M105.36,65H90.624v-0.042c-0.278,0.01-0.55,0.042-0.83,0.042
	C77.757,65,68,55.15,68,42.999c0-12.151,9.757-22.001,21.793-22.001c0.28,0,0.552,0.031,0.83,0.042v-0.042h14.737l28.643,22.001
	L105.36,65z"/>
<path fill-rule="evenodd" clip-rule="evenodd" fill="none" d="M97.472,41.457l5.728,5.98l5.249-0.297l1.911,2.272l-5.185,1.365
	c0,0-0.229-0.302,0.91,0.951c1.075,1.181,0.175,1.46-0.724,0.682c-0.899-0.779-0.911-0.951-0.911-0.951l-2.233,4.86l-1.808-2.846
	l1.186-3.876l-6.055-6.321l-5.575,12.208l-1.716-1.472l2.134-16.279c0,0-4.34-4.851-4.836-6.008
	c-0.497-1.157-0.341-1.953,1.208-1.136c1.548,0.817,5.966,5.27,5.966,5.27l15.008-0.473l2.614,2.089L97.472,41.457z"/>
<path fill-rule="evenodd" clip-rule="evenodd" fill="none" d="M288.987,65H118.013l28.089-22.001l-28.089-22.001h170.975
	l28.089,22.001L288.987,65z"/>
<path fill-rule="evenodd" clip-rule="evenodd" fill="none" d="M458.758,65H301.217l28.089-22.001l-28.089-22.001h157.541
	l28.089,22.001L458.758,65z"/>
<path fill-rule="evenodd" clip-rule="evenodd" fill="none" d="M642.11,65H471.135l28.089-22.001l-28.089-22.001H642.11
	l28.088,22.001L642.11,65z"/>
<path fill-rule="evenodd" clip-rule="evenodd" fill="#CCCCCC" d="M105.36,65H90.624v-0.042c-0.278,0.01-0.55,0.042-0.83,0.042
	C77.757,65,68,55.15,68,42.999c0-12.151,9.757-22.001,21.793-22.001c0.28,0,0.552,0.031,0.83,0.042v-0.042h14.737l28.643,22.001
	L105.36,65z"/>
<path fill-rule="evenodd" clip-rule="evenodd" fill="#FFFFFF" d="M97.472,41.457l5.728,5.98l5.249-0.297l1.911,2.272l-5.185,1.365
	c0,0-0.229-0.302,0.91,0.951c1.075,1.181,0.175,1.46-0.724,0.682c-0.899-0.779-0.911-0.951-0.911-0.951l-2.233,4.86l-1.808-2.846
	l1.186-3.876l-6.055-6.321l-5.575,12.208l-1.716-1.472l2.134-16.279c0,0-4.34-4.851-4.836-6.008
	c-0.497-1.157-0.341-1.953,1.208-1.136c1.548,0.817,5.966,5.27,5.966,5.27l15.008-0.473l2.614,2.089L97.472,41.457z"/>
<path fill-rule="evenodd" clip-rule="evenodd" fill="#CCCCCC" d="M288.987,65H118.013l28.089-22.001l-28.089-22.001h170.975
	l28.089,22.001L288.987,65z"/>
<path fill-rule="evenodd" clip-rule="evenodd" fill="#CCCCCC" d="M458.758,65H301.217l28.089-22.001l-28.089-22.001h157.541
	l28.089,22.001L458.758,65z"/>
<path fill-rule="evenodd" clip-rule="evenodd" fill="#CCCCCC" d="M642.11,65H471.135l28.089-22.001l-28.089-22.001H642.11
	l28.088,22.001L642.11,65z"/>
<path fill-rule="evenodd" clip-rule="evenodd" fill="#CCCCCC" d="M825.651,65H654.676l28.089-22.001l-28.089-22.001h170.975
	l28.089,22.001L825.651,65z"/>
<path fill-rule="evenodd" clip-rule="evenodd" fill="#CCCCCC" d="M1008.841,65H837.866l28.088-22.001l-28.088-22.001h170.975
	l28.088,22.001L1008.841,65z"/>
<path fill-rule="evenodd" clip-rule="evenodd" fill="#CCCCCC" d="M1191.645,65H1020.67l28.088-22.001l-28.088-22.001h170.975
	l28.089,22.001L1191.645,65z"/>
<path fill-rule="evenodd" clip-rule="evenodd" fill="#CCCCCC" d="M1375.296,65h-170.975l28.089-22.001l-28.089-22.001h170.975
	l28.089,22.001L1375.296,65z"/>
<path fill-rule="evenodd" clip-rule="evenodd" fill="#CCCCCC" d="M1538.638,65c-0.307,0-0.612-0.01-0.916-0.024V65h-151.74
	l28.088-22.001l-28.088-22.001h151.74v0.024c0.304-0.013,0.609-0.024,0.916-0.024c11.804,0,21.372,9.85,21.372,22.001
	C1560.01,55.15,1550.441,65,1538.638,65z"/>
</svg>
