<?xml version="1.0" encoding="utf-8"?>
<!-- Generator: Adobe Illustrator 16.0.0, SVG Export Plug-In . SVG Version: 6.00 Build 0)  -->
<!DOCTYPE svg PUBLIC "-//W3C//DTD SVG 1.1//EN" "http://www.w3.org/Graphics/SVG/1.1/DTD/svg11.dtd">
<svg version="1.1" id="图层_1" xmlns="http://www.w3.org/2000/svg" xmlns:xlink="http://www.w3.org/1999/xlink" x="0px" y="0px"
	 width="1493px" height="44px" viewBox="0 0 1493 44" enable-background="new 0 0 1493 44" xml:space="preserve">
<path fill="none" d="M39.351,44H24.614v-0.042c-0.278,0.01-0.55,0.042-0.83,0.042C11.748,44,1.99,34.15,1.99,21.999
	c0-12.15,9.757-22.001,21.793-22.001c0.28,0,0.552,0.032,0.83,0.042v-0.042H39.35l28.643,22.001L39.351,44z"/>
<path fill="none" d="M31.463,20.17l5.729,5.98l5.249-0.297l1.911,2.271l-5.186,1.364c0,0-0.229-0.301,0.91,0.951
	c1.075,1.183,0.175,1.461-0.724,0.683c-0.899-0.779-0.911-0.951-0.911-0.951l-2.233,4.86L34.4,32.186l1.186-3.877l-6.055-6.321
	l-5.575,12.208l-1.716-1.471l2.134-16.28c0,0-4.34-4.851-4.836-6.007c-0.497-1.158-0.341-1.953,1.208-1.137
	c1.548,0.817,5.966,5.27,5.966,5.27l15.009-0.473l2.613,2.09L31.463,20.17z"/>
<path fill="#CCCCCC" d="M222.978,44H52.003l28.089-22.001L52.003-0.002h170.976l28.089,22.001L222.978,44z"/>
<path fill="none" d="M392.748,44H235.207l28.089-22.001L235.207-0.002h157.541l28.089,22.001L392.748,44z"/>
<path fill="none" d="M576.101,44H405.126l28.09-22.001l-28.09-22.001h170.976l28.089,22.001L576.101,44z"/>
<path fill="#CCCCCC" d="M39.351,44H24.614v-0.042c-0.278,0.01-0.55,0.042-0.83,0.042C11.748,44,1.99,34.15,1.99,21.999
	c0-12.15,9.757-22.001,21.793-22.001c0.28,0,0.552,0.032,0.83,0.042v-0.042H39.35l28.643,22.001L39.351,44z"/>
<path fill="#FFFFFF" d="M31.463,20.17l5.729,5.98l5.249-0.297l1.911,2.271l-5.186,1.364c0,0-0.229-0.301,0.91,0.951
	c1.075,1.183,0.175,1.461-0.724,0.683c-0.899-0.779-0.911-0.951-0.911-0.951l-2.233,4.86L34.4,32.186l1.186-3.877l-6.055-6.321
	l-5.575,12.208l-1.716-1.471l2.134-16.28c0,0-4.34-4.851-4.836-6.007c-0.497-1.158-0.341-1.953,1.208-1.137
	c1.548,0.817,5.966,5.27,5.966,5.27l15.009-0.473l2.613,2.09L31.463,20.17z"/>
<path fill="none" d="M223.978,47H53.003l28.089-22.001L53.003,2.998h170.976l28.089,22.001L223.978,47z"/>
<text transform="matrix(1 0 0 1 85.0662 32.7178)" stroke="#381717" stroke-miterlimit="10" font-family="'AdobeSongStd-Light-GBpc-EUC-H'" font-size="24">结构比例变化</text>
<path fill="#CCCCCC" d="M392.748,44H235.207l28.089-22.001L235.207-0.002h157.541l28.089,22.001L392.748,44z"/>
<path fill="#CCCCCC" d="M576.101,44H405.126l28.09-22.001l-28.09-22.001h170.976l28.089,22.001L576.101,44z"/>
<path fill="#CCCCCC" d="M759.642,44H588.668l28.089-22.001L588.668-0.002h170.975l28.089,22.001L759.642,44z"/>
<path fill="#CCCCCC" d="M942.831,44H771.856l28.089-22.001L771.856-0.002h170.976l28.089,22.001L942.831,44z"/>
<path fill="#CCCCCC" d="M1125.635,44H954.66l28.089-22.001L954.66-0.002h170.976l28.089,22.001L1125.635,44z"/>
<path fill="#CCCCCC" d="M1309.286,44h-170.975l28.089-22.001l-28.089-22.001h170.975l28.089,22.001L1309.286,44z"/>
<path fill="#CCCCCC" d="M1472.629,44c-0.308,0-0.611-0.012-0.916-0.023V44h-151.739l28.088-22.001l-28.088-22.001h151.739v0.024
	c0.305-0.014,0.608-0.024,0.916-0.024c11.804,0,21.371,9.851,21.371,22.001C1494,34.15,1484.432,44,1472.629,44z"/>
</svg>
